PathFileType	4	(X/Y/Z)	7_coords_data.trc
DataRate	CameraRate	NumFrames	NumMarkers	Units	OrigDataRate	OrigDataStartFrame	OrigNumFrames
30.0	30.0	5	21	m	30.0	20	68
Frame#	Time	THUMB_TIP	THUMB_IP	THUMB_MCP	THUMB_CMC	INDEX_TIP	INDEX_DIP	INDEX_PIP	INDEX_MCP	MIDDLE_TIP	MIDDLE_DIP	MIDDLE_PIP	MIDDLE_MCP	RING_TIP	RING_DIP	RING_PIP	RING_MCP	PINKY_TIP	PINKY_DIP	PINKY_PIP	PINKY_MCP	WRIST
X1	Y1	Z1	X2	Y2	Z2	X3	Y3	Z3	X4	Y4	Z4	X5	Y5	Z5	X6	Y6	Z6	X7	Y7	Z7	X8	Y8	Z8	X9	Y9	Z9	X10	Y10	Z10	X11	Y11	Z11	X12	Y12	Z12	X13	Y13	Z13	X14	Y14	Z14	X15	Y15	Z15	X16	Y16	Z16	X17	Y17	Z17	X18	Y18	Z18	X19	Y19	Z19	X20	Y20	Z20	X21	Y21	Z21
18	0.6333333333333304	0.5499740415664337	-0.011557553483090177	-0.1262784875617341	0.5272011409963783	-0.009209490996554881	-0.12430830935007559	0.4982719304001484	-0.006323083644491079	-0.11319123118731472	0.47347429448137446	-0.015409554482161414	-0.07724122005301748	0.5627486278446108	0.04477805496036891	-0.16020635345163042	0.5493800908401485	0.04245482952237811	-0.1482111526644574	0.5311099382617218	0.0378601308824249	-0.13156482868079594	0.504362526595175	0.03362476160008032	-0.09869731112649252	0.5132621533942279	-0.008137285570892994	-0.10703212519596517	0.5285284633627659	-0.0030994028113220384	-0.11537236003950108	0.5469303272275234	0.019064609133477517	-0.11095223212124775	0.5186403226723773	0.029813918615762436	-0.07808468111841402	0.5218198689720325	-0.0175846616433859	-0.10133679668652257	0.5382998745338069	-0.010711038907856296	-0.10381928075968311	0.5546535302253344	0.004837091096987378	-0.09328393179178202	0.5300420262120573	0.017935792733257072	-0.06400221873314346	0.6025313425763404	0.02142533353112519	-0.05255363476171207	0.5864067524281837	0.01580689139389968	-0.05374975369585447	0.5664737650306385	0.009771677703105386	-0.056407615264061906	0.5323432760703827	-0.0011731248740000089	-0.06043309298503452	0.4622830810018609	-0.023011742144276925	-0.051989820119430985
19	0.6666666666666637	0.5500877261330464	-0.011013423098994113	-0.126135075799657	0.527299504204644	-0.008818631642353636	-0.12416534693411685	0.498334481246477	-0.006074304694424382	-0.11310568533731699	0.47357566852165	-0.015333640996354592	-0.07717302771636306	0.5623257049323057	0.0450080744536705	-0.16025143027375544	0.5489905432942214	0.04251112504967003	-0.14825398438890042	0.5308102288847978	0.03781657215854917	-0.1315373108523688	0.5042075665105962	0.03388962180377009	-0.09851438685228459	0.5133434570230432	-0.007849970862271127	-0.10682540650698605	0.5286053080815978	-0.002772538645868572	-0.11514980344336118	0.5468627551090246	0.019497664926208524	-0.11066502798644612	0.5184859851584127	0.030104672443414304	-0.07782605358559147	0.5218958513571146	-0.017197490186042552	-0.1010412881844644	0.5383841289950966	-0.010351662276814166	-0.1035455527012542	0.5545883212138611	0.005297884703611255	-0.09292972429058396	0.529891873433387	0.01827941136451372	-0.06366735482776376	0.6021044922704265	0.022492302843670875	-0.0513655571962508	0.5860680083057763	0.016683487558105004	-0.052810841607600856	0.5662458113303008	0.010413184054873459	-0.05573929171692665	0.5322777348809928	-0.0008698250052945333	-0.06018304462208951	0.4622830810018609	-0.023011742144276925	-0.051989820119430985
20	0.6999999999999968	0.5501773059308981	-0.010336358206247231	-0.1258634458397359	0.5273623958507925	-0.008310345112852668	-0.12402628798530657	0.498356620937386	-0.005768772254166721	-0.11302513217890214	0.4736530866594091	-0.015245944381698906	-0.07711122675715854	0.561777771554799	0.04551188087652591	-0.16028075045402645	0.548491306663079	0.04278323340407486	-0.14827973659468197	0.5304140038510627	0.03790849161782606	-0.1315030310611135	0.503971969898691	0.03421686639621624	-0.09832432045197742	0.5134016121441292	-0.007484873602885189	-0.10663939156592067	0.5286564387005153	-0.0023310912319534083	-0.11492967467373111	0.5467320592918176	0.020071244215474127	-0.11036712530520718	0.5182539841497589	0.03048061658092427	-0.07755261442723338	0.5219231462342118	-0.01678035149039636	-0.10076760345166796	0.5383829862717723	-0.009867056926797346	-0.1032736011002772	0.5544674486117249	0.005855429460507544	-0.09258372401793152	0.5296945962213307	0.018695646482739692	-0.0633235899569653	0.6015955419918577	0.023746816003895166	-0.050201068183333836	0.5856681388555265	0.017709849936572652	-0.05189602247026326	0.5659611748505385	0.01120088207091574	-0.05507106987620153	0.5321817469545526	-0.0004745605898404115	-0.05992057920141014	0.4622830810018609	-0.023011742144276925	-0.051989820119430985
21	0.7333333333333302	0.5501985783115322	-0.009626087717840348	-0.1256751923385786	0.5273574293688152	-0.007797291742140944	-0.12396130195238392	0.4983412028539629	-0.005413928534987789	-0.11295229751685174	0.47371978455310493	-0.01515523660669471	-0.07705267804942181	0.5611807989687747	0.046233181946290114	-0.1602601795749904	0.5479478185207749	0.04321433110633843	-0.1482695679113188	0.5299803567399227	0.03809363913716746	-0.1314481927026599	0.5037167446737015	0.03457471508346799	-0.09810938725406379	0.5134437026869251	-0.007084900102891645	-0.10646179291014268	0.5286771837306353	-0.0018495044053012943	-0.11474017966002165	0.5465768163746282	0.020677158595641565	-0.11009667287612881	0.5180030913542868	0.030863509640378428	-0.07729532516212007	0.5219432448980708	-0.016331932012941808	-0.10053827738117924	0.5383654101859281	-0.009338591989948797	-0.10306922237882346	0.5543284650709364	0.006440410600811353	-0.09228108375443611	0.5294931657425351	0.019105978713176763	-0.06299777578454055	0.6010631739939196	0.02502469855353706	-0.04920546888146449	0.5852525193132058	0.01875202998608172	-0.05112297445122907	0.5656635780702481	0.011998795284004937	-0.05451107436690705	0.5320698191094891	-5.7284874144136744e-05	-0.0597066244924194	0.4622830810018609	-0.023011742144276925	-0.051989820119430985
22	0.7666666666666633	0.550197263671216	-0.008902255265554437	-0.12541204340333126	0.5273257274304066	-0.007255289557917877	-0.12393544801419784	0.49830996347032314	-0.005046221518573368	-0.11288893452756929	0.4738134177830611	-0.015040641813018119	-0.0769734669353205	0.5606276685509888	0.04695335357047892	-0.1602020152190792	0.5474430251102046	0.04364631434837252	-0.14823419716720207	0.5295755108866302	0.03830586658409285	-0.13137473732569568	0.5034535639911242	0.03492098376461261	-0.0979109874956669	0.5134320147420703	-0.00669529438535299	-0.1062484853902857	0.5286256498566777	-0.0013776840369715826	-0.11454767042177871	0.546390322431028	0.021238735022992783	-0.10982289029671463	0.5177220063846302	0.0312645149244728	-0.07705462343026398	0.5219058256121971	-0.015875174054400754	-0.10029991527555968	0.5383006945478668	-0.008831031737391526	-0.10286668982739197	0.5541569205898488	0.007008593654745154	-0.09201006318085261	0.5292679268518713	0.01953608803426954	-0.06271295224339146	0.6005813339853288	0.026218931364093256	-0.048510299491096726	0.5848698171210283	0.01974892697738906	-0.050580874546203414	0.5653822555038838	0.012774693959130778	-0.05410323668332598	0.5319396148150256	0.0003975453721438704	-0.05951428349624299	0.4622830810018609	-0.023011742144276925	-0.051989820119430985
